<?xml version="1.0" encoding="utf-8"?><svg viewBox="0 0 73 37" xmlns="http://www.w3.org/2000/svg" xmlns:xlink="http://www.w3.org/1999/xlink"><style>:root>svg{display:none}:root>svg:target{display:block}</style><svg fill="none" viewBox="0 0 9 16" id="arrow" xmlns="http://www.w3.org/2000/svg"><path d="M8 1 1 8l7 7" stroke="#fff" stroke-width="1.267"/></svg><svg fill="none" viewBox="0 0 12 12" id="burger" xmlns="http://www.w3.org/2000/svg"><rect width="12" height="1.333" rx=".667" fill="#fff"/><rect y="5.333" width="12" height="1.333" rx=".667" fill="#fff"/><rect y="10.667" width="12" height="1.333" rx=".667" fill="#fff"/></svg><svg fill="none" viewBox="0 0 73 13" id="card-stars" xmlns="http://www.w3.org/2000/svg"><path d="M5.54 1.464a.5.5 0 0 1 .952 0l.763 2.348a.5.5 0 0 0 .476.345H10.2a.5.5 0 0 1 .293.905L8.496 6.513a.5.5 0 0 0-.182.56l.763 2.347a.5.5 0 0 1-.77.56L6.31 8.527a.5.5 0 0 0-.587 0L3.725 9.98a.5.5 0 0 1-.77-.559l.764-2.348a.5.5 0 0 0-.182-.559L1.539 5.062a.5.5 0 0 1 .294-.905h2.47a.5.5 0 0 0 .475-.345l.763-2.348ZM20.783 1.464a.5.5 0 0 1 .95 0l.764 2.348a.5.5 0 0 0 .475.345h2.47a.5.5 0 0 1 .293.905l-1.997 1.451a.5.5 0 0 0-.182.56l.763 2.347a.5.5 0 0 1-.77.56l-1.997-1.452a.5.5 0 0 0-.588 0L18.967 9.98a.5.5 0 0 1-.77-.559l.763-2.348a.5.5 0 0 0-.181-.559L16.78 5.062a.5.5 0 0 1 .294-.905h2.47a.5.5 0 0 0 .475-.345l.763-2.348ZM36.023 1.464a.5.5 0 0 1 .951 0l.763 2.348a.5.5 0 0 0 .476.345h2.47a.5.5 0 0 1 .293.905l-1.998 1.451a.5.5 0 0 0-.181.56l.763 2.347a.5.5 0 0 1-.77.56l-1.997-1.452a.5.5 0 0 0-.588 0L34.208 9.98a.5.5 0 0 1-.77-.559l.763-2.348a.5.5 0 0 0-.182-.559l-1.997-1.451a.5.5 0 0 1 .294-.905h2.469a.5.5 0 0 0 .475-.345l.763-2.348ZM51.266 1.464a.5.5 0 0 1 .951 0l.763 2.348a.5.5 0 0 0 .476.345h2.469a.5.5 0 0 1 .294.905L54.22 6.513a.5.5 0 0 0-.181.56l.763 2.347a.5.5 0 0 1-.77.56l-1.997-1.452a.5.5 0 0 0-.588 0L49.45 9.98a.5.5 0 0 1-.769-.559l.763-2.348a.5.5 0 0 0-.182-.559l-1.997-1.451a.5.5 0 0 1 .294-.905h2.469a.5.5 0 0 0 .475-.345l.763-2.348ZM66.508 1.464a.5.5 0 0 1 .951 0l.763 2.348a.5.5 0 0 0 .476.345h2.469a.5.5 0 0 1 .294.905l-1.998 1.451a.5.5 0 0 0-.181.56l.763 2.347a.5.5 0 0 1-.77.56l-1.997-1.452a.5.5 0 0 0-.588 0L64.692 9.98a.5.5 0 0 1-.77-.559l.764-2.348a.5.5 0 0 0-.182-.559l-1.997-1.451a.5.5 0 0 1 .294-.905h2.469a.5.5 0 0 0 .475-.345l.763-2.348Z" fill="#FFCA0E"/></svg><svg fill="none" viewBox="0 0 18 22" id="comparison" xmlns="http://www.w3.org/2000/svg"><path fill-rule="evenodd" clip-rule="evenodd" d="M15.339 0a1 1 0 0 0-1 1v20a1 1 0 0 0 1 1h1.318a1 1 0 0 0 1-1V1a1 1 0 0 0-1-1h-1.318ZM7.494 5.037a1 1 0 0 1 1-1h1.318a1 1 0 0 1 1 1V21a1 1 0 0 1-1 1H8.494a1 1 0 0 1-1-1V5.037ZM0 11.393a1 1 0 0 1 1-1h1.318a1 1 0 0 1 1 1V21a1 1 0 0 1-1 1H1a1 1 0 0 1-1-1v-9.606Z" fill="currentColor"/></svg><svg fill="none" viewBox="0 0 14 17" id="comparison-card" xmlns="http://www.w3.org/2000/svg"><path fill-rule="evenodd" clip-rule="evenodd" d="M12.08 0a1 1 0 0 0-1 1v15a1 1 0 0 0 1 1h.565a1 1 0 0 0 1-1V1a1 1 0 0 0-1-1h-.564ZM5.79 4.12a1 1 0 0 1 1-1h.565a1 1 0 0 1 1 1V16a1 1 0 0 1-1 1H6.79a1 1 0 0 1-1-1V4.12ZM0 9.03a1 1 0 0 1 1-1h.564a1 1 0 0 1 1 1V16a1 1 0 0 1-1 1H1a1 1 0 0 1-1-1V9.031Z" fill="currentColor" fill-opacity=".33"/></svg><svg fill="none" viewBox="0 0 25 17" id="delivety-icon" xmlns="http://www.w3.org/2000/svg"><path d="m24.727 7.858-1.514-1.404a.894.894 0 0 1-.231-.347l-1.19-3.229a2.39 2.39 0 0 0-2.231-1.553h-1.802V.82a.82.82 0 0 0-.82-.82H6.051a.622.622 0 0 0-.629.598.61.61 0 0 0 .609.62h10.51v5.284a.82.82 0 0 0 .82.82h4.95l1.47 1.323v4.934h-1.334a2.63 2.63 0 0 0-5.127 0h-4.101a2.63 2.63 0 0 0-5.128 0h-2.04a.622.622 0 0 0-.629.598.609.609 0 0 0 .609.62H8.1a2.63 2.63 0 0 0 5.107 0h4.122a2.631 2.631 0 0 0 5.107 0h1.741a.82.82 0 0 0 .82-.819v-5.51a.822.822 0 0 0-.271-.61Zm-6.968-1.754V2.543h1.802a1.166 1.166 0 0 1 1.09.758l1.037 2.803h-3.93Zm-7.104 9.474a1.413 1.413 0 1 1 0-2.825 1.413 1.413 0 0 1 0 2.825Zm9.229 0a1.412 1.412 0 1 1 0-2.823 1.412 1.412 0 0 1 0 2.823Z" fill="#fff"/><path d="M3.432 4.624h6.906a.609.609 0 0 0 0-1.218H3.432a.609.609 0 1 0 0 1.218Zm7.515 2.774a.609.609 0 0 0-.61-.609H.615a.61.61 0 1 0 0 1.218h9.724a.609.609 0 0 0 .609-.609ZM7.09 10.781a.61.61 0 0 0-.61-.609H2.25a.609.609 0 0 0 0 1.218h4.233a.609.609 0 0 0 .608-.609Z" fill="#fff"/></svg><svg fill="none" viewBox="0 0 18 19" id="guarantee" xmlns="http://www.w3.org/2000/svg"><path d="M15.217 8.8h-2.866a.633.633 0 0 1-.628-.629V2.313c0-.62.243-1.198.678-1.634A2.295 2.295 0 0 1 14.037 0h.008a3.99 3.99 0 0 1 2.79 1.165A3.992 3.992 0 0 1 18 3.98v2.028c.008 1.668-1.115 2.79-2.783 2.79ZM12.98 7.542h2.237c.972 0 1.534-.561 1.534-1.533V3.98c0-.721-.285-1.408-.796-1.928a2.776 2.776 0 0 0-1.91-.796h-.01c-.276 0-.544.109-.745.31a1.04 1.04 0 0 0-.31.746v5.23Z" fill="#fff"/><path d="M6.487 18.504c-.394 0-.763-.15-1.04-.436l-1.39-1.4a.206.206 0 0 0-.277-.016l-1.433 1.073a1.452 1.452 0 0 1-1.534.142A1.46 1.46 0 0 1 0 16.551V3.982C0 1.45 1.45 0 3.98 0h10.057c.344 0 .629.285.629.629a.633.633 0 0 1-.629.628c-.578 0-1.047.47-1.047 1.048v14.247a1.46 1.46 0 0 1-.813 1.315 1.45 1.45 0 0 1-1.534-.134L9.21 16.66a.204.204 0 0 0-.268.017l-1.408 1.408a1.52 1.52 0 0 1-1.047.42Zm-2.59-3.15c.385 0 .763.142 1.047.435l1.392 1.4c.05.05.117.058.15.058-.008-.017.101-.008.151-.059l1.408-1.407c.52-.52 1.341-.57 1.92-.126l1.424 1.064a.191.191 0 0 0 .218.017c.042-.025.117-.076.117-.184V2.305a2.3 2.3 0 0 1 .252-1.048H3.972c-1.86 0-2.723.863-2.723 2.724v12.57c0 .118.075.168.117.193.05.025.134.042.218-.025l1.433-1.073c.26-.192.57-.293.88-.293Z" fill="#fff"/><path d="M8.792 7.96H4.183a.633.633 0 0 1-.628-.628c0-.344.285-.629.628-.629h4.61c.343 0 .628.285.628.629a.633.633 0 0 1-.629.628Z" fill="#fff"/></svg><svg fill="none" viewBox="0 0 22 20" id="heart" xmlns="http://www.w3.org/2000/svg"><path d="m10.6 19.9-.008-.003-.025-.013a17.22 17.22 0 0 1-.432-.242 28.38 28.38 0 0 1-4.788-3.523C2.75 13.734 0 10.194 0 5.834 0 2.58 2.78 0 6.135 0a6.285 6.285 0 0 1 2.697.593A6.19 6.19 0 0 1 11 2.28 6.191 6.191 0 0 1 13.169.593 6.284 6.284 0 0 1 15.866 0C19.22 0 22 2.58 22 5.834c0 4.36-2.75 7.9-5.347 10.284a28.376 28.376 0 0 1-4.788 3.523c-.143.083-.287.164-.432.243l-.025.013-.008.005h-.003a.859.859 0 0 1-.794 0l-.003-.001Z" fill="currentColor"/></svg><svg fill="none" viewBox="0 0 14 14" id="location" xmlns="http://www.w3.org/2000/svg"><path fill-rule="evenodd" clip-rule="evenodd" d="M7 4.813a1.313 1.313 0 1 0 0 2.625 1.313 1.313 0 0 0 0-2.625Zm-1.547-.235a2.188 2.188 0 1 1 3.094 3.094 2.188 2.188 0 0 1-3.094-3.094Z" fill="#fff" fill-opacity=".6"/><path fill-rule="evenodd" clip-rule="evenodd" d="M7 2.188a3.937 3.937 0 0 0-3.938 3.937c0 1.923 1.01 3.46 2.063 4.538A10.546 10.546 0 0 0 7 12.178a10.546 10.546 0 0 0 1.875-1.515c1.053-1.079 2.063-2.615 2.063-4.538A3.937 3.937 0 0 0 7 2.187Zm0 10.5-.21.383h-.002l-.004-.003-.011-.006a3.618 3.618 0 0 1-.19-.113A11.429 11.429 0 0 1 4.5 11.274c-1.135-1.16-2.313-2.905-2.313-5.149a4.813 4.813 0 0 1 9.626 0c0 2.244-1.178 3.988-2.313 5.15a11.429 11.429 0 0 1-2.083 1.674 6.447 6.447 0 0 1-.19.113l-.011.006-.004.002h-.001v.001L7 12.688Zm0 0 .21.383a.438.438 0 0 1-.42 0l.21-.383Z" fill="#fff" fill-opacity=".6"/></svg><svg fill="none" viewBox="0 0 23 23" id="original" xmlns="http://www.w3.org/2000/svg"><path d="M0 10.553v1.846c.07 1.82 2.676 1.818 2.745 0v-1.846c-.07-1.819-2.676-1.817-2.745 0Zm1.846 0v1.846c-.024.628-.924.628-.947 0v-1.846a.474.474 0 0 1 .947 0Zm19.092-1.372a.45.45 0 0 0-.45.449v3.693c0 .248.202.449.45.449h1.616c.595-.022.595-.877 0-.899h-1.167V9.63a.45.45 0 0 0-.449-.45Zm-5.527.449v1.79l-.995-1.991a.45.45 0 0 0-.851.2v3.694c.022.595.877.595.898 0v-1.79l.996 1.99a.45.45 0 0 0 .85-.2V9.63c-.021-.596-.876-.595-.898 0Zm-9.204.923c0-.757-.616-1.372-1.373-1.372h-.923a.45.45 0 0 0-.45.449v3.693c.023.595.878.595.9 0v-1.398h.196l.799 1.598a.45.45 0 0 0 .803-.401l-.679-1.358c.432-.232.727-.688.727-1.211Zm-1.847-.474h.474c.626.024.63.919.005.948H4.36v-.948Zm14.962 3.693a.45.45 0 0 0 .45-.45v-2.769c-.07-1.819-2.677-1.817-2.745 0v2.77c.022.595.876.595.898 0v-.936h.948v.936c0 .248.201.449.45.449Zm-1.397-2.284v-.935c.024-.628.924-.628.948 0v.935h-.948ZM6.872 9.63v3.693c.022.595.876.595.898 0V9.63c-.022-.596-.876-.595-.898 0Zm2.988.45c.178 0 .34.099.422.26a.45.45 0 1 0 .8-.41c-.66-1.275-2.584-.81-2.595.623v1.846c.07 1.82 2.677 1.818 2.745 0v-.681a.45.45 0 0 0-.449-.45h-.461c-.596.023-.596.877 0 .899h.012v.232c-.024.628-.924.628-.948 0v-1.846c0-.261.213-.474.474-.474Zm2.09-.45v3.693c.021.595.876.595.898 0V9.63c-.022-.596-.877-.595-.899 0ZM.45 8.107h22.104c.595-.022.595-.877 0-.899h-.37C18.282-2.405 4.718-2.4.82 7.208h-.37c-.595.022-.595.877 0 .899Zm4.13-.899c3.04-5.116 10.804-5.115 13.844 0H4.579ZM11.5.873c4.201 0 8.028 2.522 9.709 6.335h-1.75a9.03 9.03 0 0 0-3.268-3.449c-2.816-1.744-6.565-1.744-9.38 0a9.028 9.028 0 0 0-3.269 3.45h-1.75C3.473 3.394 7.301.872 11.501.872Zm11.053 13.973H.449c-.595.022-.595.876 0 .898h.37c3.902 9.614 17.466 9.608 21.365 0h.37c.595-.022.595-.876 0-.898Zm-4.13.898c-3.041 5.117-10.805 5.115-13.845 0h13.845ZM11.5 22.08c-4.2 0-8.028-2.522-9.708-6.335h1.75c3.394 6.328 12.525 6.326 15.916 0h1.75c-1.68 3.813-5.507 6.335-9.708 6.335Z" fill="#fff"/></svg><svg fill="none" viewBox="0 0 17 17" id="phone" xmlns="http://www.w3.org/2000/svg"><path fill-rule="evenodd" clip-rule="evenodd" d="M0 2.857A2.357 2.357 0 0 1 2.357.5h1.078c.676 0 1.265.46 1.43 1.116l.868 3.475a1.473 1.473 0 0 1-.546 1.536l-1.016.762c-.106.08-.128.196-.099.277a8.867 8.867 0 0 0 5.262 5.262c.081.03.197.007.277-.1l.762-1.015a1.474 1.474 0 0 1 1.536-.546l3.475.869a1.474 1.474 0 0 1 1.116 1.43v1.077A2.357 2.357 0 0 1 14.143 17h-1.768C5.541 17 0 11.46 0 4.625V2.857Z" fill="currentColor"/></svg><svg fill="none" viewBox="0 0 12 13" id="pointer" xmlns="http://www.w3.org/2000/svg"><path d="M0 6.5h11m0 0L5.5 1M11 6.5 5.5 12" stroke="#3E4D31" stroke-width="1.2"/></svg><svg fill="none" viewBox="0 0 10 10" id="search" xmlns="http://www.w3.org/2000/svg"><path d="m9.45 9.232-2.31-2.31m0 0a3.333 3.333 0 1 0-4.714-4.714A3.333 3.333 0 0 0 7.14 6.922Z" stroke="#fff" stroke-linecap="round" stroke-linejoin="round"/></svg><svg fill="none" viewBox="0 0 37 37" id="smile" xmlns="http://www.w3.org/2000/svg"><g opacity=".8" clip-path="url(#na)" fill="#fff"><path d="M31.581 5.418A18.38 18.38 0 0 0 18.5 0 18.38 18.38 0 0 0 5.418 5.418 18.38 18.38 0 0 0 0 18.5a18.38 18.38 0 0 0 5.418 13.081A18.38 18.38 0 0 0 18.5 37a18.38 18.38 0 0 0 13.081-5.419A18.38 18.38 0 0 0 37 18.5a18.38 18.38 0 0 0-5.419-13.082ZM18.5 34.711c-8.939 0-16.211-7.272-16.211-16.211C2.289 9.561 9.56 2.289 18.5 2.289c8.939 0 16.211 7.272 16.211 16.211 0 8.939-7.272 16.211-16.211 16.211Z"/><path d="M24.299 17.66a2.673 2.673 0 0 0 2.67-2.67 2.673 2.673 0 0 0-2.67-2.67 2.673 2.673 0 0 0-2.67 2.67 2.673 2.673 0 0 0 2.67 2.67Zm-11.598 0a2.673 2.673 0 0 0 2.67-2.67 2.673 2.673 0 0 0-2.67-2.67 2.673 2.673 0 0 0-2.67 2.67 2.673 2.673 0 0 0 2.67 2.67Zm5.799 9.422a8.622 8.622 0 0 1-8.056-5.622l-2.148.791c1.57 4.259 5.67 7.12 10.204 7.12 4.533 0 8.634-2.861 10.204-7.12l-2.148-.791a8.622 8.622 0 0 1-8.056 5.622Z"/></g><defs><clipPath id="na"><path fill="#fff" d="M0 0h37v37H0z"/></clipPath></defs></svg><svg fill="none" viewBox="0 0 14 12" id="tg" xmlns="http://www.w3.org/2000/svg"><path d="M.615 4.971 12.329.455c.543-.197 1.018.132.842.955l.001-.001-1.994 9.396c-.148.666-.544.828-1.098.514L7.043 9.081l-1.465 1.411c-.162.162-.299.299-.613.299L5.181 7.7l5.63-5.086c.244-.215-.056-.337-.379-.122l-6.956 4.38-2.999-.936c-.65-.206-.665-.65.138-.965Z" fill="#039BE5"/></svg><svg fill="none" viewBox="0 0 15 15" id="time" xmlns="http://www.w3.org/2000/svg"><path d="M7.5 0C3.364 0 0 3.364 0 7.5S3.364 15 7.5 15 15 11.636 15 7.5 11.636 0 7.5 0Zm0 14.063A6.57 6.57 0 0 1 .937 7.5 6.57 6.57 0 0 1 7.5.937 6.57 6.57 0 0 1 14.063 7.5 6.57 6.57 0 0 1 7.5 14.063Zm.469-11.38V7.5a.469.469 0 0 1-.234.406l-2.73 1.578a.466.466 0 0 1-.64-.171.469.469 0 0 1 .17-.64L7.032 7.23V2.683a.469.469 0 0 1 .938 0Z" fill="#3E4D31"/></svg><svg fill="none" viewBox="0 0 15 15" id="ws" xmlns="http://www.w3.org/2000/svg"><path d="M12.156 2.507A7.106 7.106 0 0 0 .772 10.728l-.754 3.66a.27.27 0 0 0 .043.213.275.275 0 0 0 .292.113l3.587-.85a7.105 7.105 0 0 0 8.216-11.357Zm-1.118 8.928a5.566 5.566 0 0 1-6.41 1.042l-.5-.248-2.2.521.007-.027.456-2.214-.245-.483a5.563 5.563 0 1 1 8.892 1.41Z" fill="#29A71A"/><path d="M10.843 9.81c-.27.425-.696.945-1.231 1.074-.938.226-2.377.007-4.167-1.662l-.022-.02c-1.575-1.46-1.984-2.674-1.885-3.638.055-.547.51-1.042.895-1.365a.512.512 0 0 1 .8.184l.58 1.302a.51.51 0 0 1-.063.52l-.293.381a.504.504 0 0 0-.046.563c.164.288.557.71.994 1.103.49.443 1.032.848 1.376.986a.497.497 0 0 0 .546-.115l.34-.342a.52.52 0 0 1 .507-.13l1.377.39a.52.52 0 0 1 .292.77Z" fill="#29A71A"/></svg></svg>